<svg xmlns="http://www.w3.org/2000/svg" xmlns:xlink="http://www.w3.org/1999/xlink"><symbol id="icon__14" viewBox="0 0 54 54"><path d="M31.225 9.533a.898.898 0 10-.421 1.746A16.118 16.118 0 0143.172 27c0 8.917-7.255 16.172-16.172 16.172-8.918 0-16.172-7.255-16.172-16.172 0-7.5 5.085-13.965 12.367-15.72a.899.899 0 00-.421-1.747 18.055 18.055 0 00-9.828 6.27A17.775 17.775 0 009.031 27c0 9.908 8.06 17.969 17.969 17.969 9.908 0 17.969-8.06 17.969-17.969 0-4.115-1.354-7.987-3.916-11.197a18.056 18.056 0 00-9.828-6.27z"/><path d="M49.459 24.84l-1.051-1.962.175-2.424a4.586 4.586 0 00-1.66-4.06l-1.745-1.428-.686-2.068a4.618 4.618 0 00-3.143-3.322l-2.153-.65-1.65-1.907a4.598 4.598 0 00-3.951-1.598l-2.236.223-2.197-1.102a4.584 4.584 0 00-4.323 0l-1.96 1.05-2.425-.175a4.585 4.585 0 00-4.06 1.66l-1.428 1.745-2.068.687a4.618 4.618 0 00-3.322 3.142l-.65 2.154-1.907 1.65a4.597 4.597 0 00-1.598 3.95l.223 2.236-1.102 2.197a4.584 4.584 0 000 4.323l1.05 1.961-.175 2.425a4.586 4.586 0 001.66 4.06l1.745 1.428.687 2.067a4.618 4.618 0 003.142 3.322l2.154.65 1.65 1.907a4.597 4.597 0 003.95 1.598l2.236-.223 2.197 1.102a4.591 4.591 0 004.323 0l1.961-1.05 2.425.175a4.587 4.587 0 004.06-1.66l1.428-1.745 2.067-.686a4.618 4.618 0 003.322-3.143l.65-2.153 1.907-1.65a4.597 4.597 0 001.598-3.951l-.223-2.235 1.103-2.198a4.584 4.584 0 000-4.323zm-1.59 3.484a.67.67 0 00-.011.022l-1.225 2.44a.9.9 0 00-.09.492l.248 2.494a2.803 2.803 0 01-.98 2.41l-2.109 1.825a.897.897 0 00-.272.42l-.726 2.403a2.816 2.816 0 01-2.052 1.922.9.9 0 00-.079.022l-2.351.78a.899.899 0 00-.413.284l-1.593 1.947a2.797 2.797 0 01-2.523 1.007l-2.7-.195a.899.899 0 00-.49.104l-2.189 1.173a2.79 2.79 0 01-2.66-.016l-2.44-1.224a.899.899 0 00-.492-.091l-2.493.248a2.803 2.803 0 01-2.41-.98l-1.826-2.109a.898.898 0 00-.42-.272l-2.402-.726a2.816 2.816 0 01-1.923-2.052.91.91 0 00-.022-.079l-.78-2.351a.897.897 0 00-.284-.412l-1.946-1.594a2.796 2.796 0 01-1.008-2.523l.196-2.7a.899.899 0 00-.105-.49l-1.173-2.189a2.79 2.79 0 01.017-2.66l1.224-2.44a.898.898 0 00.09-.492L7.21 20.23a2.803 2.803 0 01.98-2.41l2.11-1.826a.898.898 0 00.271-.42l.726-2.402a2.816 2.816 0 012.052-1.923.91.91 0 00.08-.022l2.35-.78a.897.897 0 00.413-.284l1.594-1.947a2.797 2.797 0 012.522-1.007l2.701.195c.17.013.34-.023.49-.104l2.188-1.173a2.79 2.79 0 012.638.005l.022.012 2.44 1.224a.897.897 0 00.492.09l2.494-.248a2.803 2.803 0 012.41.98l1.825 2.11a.898.898 0 00.42.271l2.403.726a2.816 2.816 0 011.922 2.052.91.91 0 00.022.08l.78 2.35a.898.898 0 00.284.413l1.947 1.594a2.796 2.796 0 011.007 2.522l-.195 2.701a.9.9 0 00.104.49l1.173 2.188a2.79 2.79 0 01-.005 2.638z"/><path d="M27 10.828a.898.898 0 100-1.797.898.898 0 100 1.797zM21.989 21.063c-.333 0-.675.171-1.071.369l-3.555 1.881c-.351.189-.594.441-.594.81 0 .468.387.837.783.837.189 0 .396-.045.666-.189l2.88-1.494v9.774c0 .603.35.963.918.963.567 0 .918-.36.918-.963V22.098c0-.666-.37-1.035-.945-1.035z"/><path clip-rule="evenodd" d="M32.316 21.051A1 1 0 0133 22v7h1a1 1 0 110 2h-1v2a1 1 0 11-2 0v-2h-5a1 1 0 01-.8-1.6l6-8a1 1 0 011.116-.349zM31 29v-4l-3 4h3z"/></symbol><symbol id="icon__achievement" viewBox="0 0 54 54"><path d="M47.716 22.172a4.173 4.173 0 00-.48-5.187 2.607 2.607 0 01-.667-2.343 4.173 4.173 0 00-2.322-4.663 2.607 2.607 0 01-1.469-1.945 4.174 4.174 0 00-3.85-3.51 2.607 2.607 0 01-2.07-1.282A4.174 4.174 0 0032 1.36a2.606 2.606 0 01-2.395-.447 4.173 4.173 0 00-5.21 0 2.606 2.606 0 01-2.394.447 4.174 4.174 0 00-4.858 1.882 2.607 2.607 0 01-2.071 1.283 4.174 4.174 0 00-3.85 3.51 2.607 2.607 0 01-1.468 1.944 4.174 4.174 0 00-2.322 4.663c.178.844-.07 1.72-.667 2.343a4.173 4.173 0 00-.48 5.187c.47.723.555 1.63.224 2.426a4.173 4.173 0 001.426 5.01A2.607 2.607 0 019.02 31.79a4.174 4.174 0 003.14 4.157c.56.145 1.045.469 1.393.91L9.195 47.378a1.87 1.87 0 00.347 1.991 1.87 1.87 0 001.949.535l4.772-1.465c.138-.042.29.02.357.149l2.339 4.41A1.869 1.869 0 0020.622 54c.772 0 1.45-.451 1.746-1.165l4.543-10.966c.06-.002.119-.002.178 0l4.543 10.966a1.87 1.87 0 001.653 1.163 1.87 1.87 0 001.756-1l2.339-4.41a.304.304 0 01.357-.149l4.772 1.465a1.87 1.87 0 001.95-.535 1.87 1.87 0 00.346-1.99l-4.358-10.522a2.607 2.607 0 011.393-.91 4.174 4.174 0 003.14-4.157 2.607 2.607 0 011.086-2.181 4.174 4.174 0 001.425-5.01 2.607 2.607 0 01.225-2.427zM20.906 52.23a.292.292 0 01-.266.187.292.292 0 01-.283-.161l-2.339-4.41a1.889 1.889 0 00-2.22-.92l-4.771 1.465a.292.292 0 01-.314-.086.292.292 0 01-.056-.321l3.866-9.335a4.17 4.17 0 003.866 1.682c.858-.1 1.706.229 2.272.88a4.171 4.171 0 004.273 1.294l-4.028 9.725zm22.381-3.925a.292.292 0 01-.314.086l-4.771-1.464a1.89 1.89 0 00-2.22.92l-2.339 4.409a.292.292 0 01-.283.161.292.292 0 01-.266-.187l-4.03-9.727a4.17 4.17 0 001.117.154c1.18 0 2.337-.501 3.158-1.446a2.608 2.608 0 012.272-.88 4.172 4.172 0 003.866-1.682l3.866 9.335a.291.291 0 01-.056.32zm3.104-26.997a4.189 4.189 0 00-.361 3.897 2.597 2.597 0 01-.888 3.119 4.19 4.19 0 00-1.744 3.504 2.598 2.598 0 01-1.954 2.587 4.187 4.187 0 00-2.587 1.977l-.004.006c-.118.207-.22.426-.302.654a2.599 2.599 0 01-2.757 1.707 4.188 4.188 0 00-3.65 1.414c-.799.92-2.11 1.165-3.187.596a4.198 4.198 0 00-3.914 0 2.598 2.598 0 01-3.188-.596 4.189 4.189 0 00-3.65-1.414 2.598 2.598 0 01-2.756-1.707 4.189 4.189 0 00-.302-.652l-.006-.01a4.188 4.188 0 00-2.585-1.975 2.598 2.598 0 01-1.954-2.587 4.188 4.188 0 00-1.745-3.504 2.598 2.598 0 01-.887-3.119 4.188 4.188 0 00-.361-3.898 2.597 2.597 0 01.299-3.228 4.188 4.188 0 001.071-3.765 2.598 2.598 0 011.445-2.902 4.188 4.188 0 002.36-3.124 2.598 2.598 0 012.395-2.185 4.188 4.188 0 003.328-2.06 2.598 2.598 0 013.024-1.172 4.188 4.188 0 003.848-.719 2.597 2.597 0 013.242 0 4.189 4.189 0 003.847.72 2.598 2.598 0 013.024 1.17 4.188 4.188 0 003.328 2.061 2.598 2.598 0 012.396 2.185 4.188 4.188 0 002.359 3.123 2.598 2.598 0 011.445 2.903 4.188 4.188 0 001.071 3.765c.843.88.966 2.208.3 3.229z"/><path d="M42.612 22.3a.792.792 0 00-.874.698 14.753 14.753 0 01-3.304 7.792v-.466a4.57 4.57 0 00-3.264-4.36l-2.187-.642a1.397 1.397 0 00-.777-.48l-1.967-.385v-1.422a5.349 5.349 0 002.059-3.487c.578-.21.992-.765.992-1.415v-4.5c0-1.094-.822-1.999-1.881-2.13a2.15 2.15 0 00-2.123-1.828h-4.669a3.914 3.914 0 00-3.909 3.909v4.55c0 .65.414 1.204.993 1.414a5.35 5.35 0 002.058 3.487v1.422l-1.939.376a1.397 1.397 0 00-.778.482l-2.212.65a4.569 4.569 0 00-3.264 4.36v.464A14.752 14.752 0 0112.262 23a.791.791 0 10-1.573.175C11.62 31.48 18.631 37.742 27 37.742c8.37 0 15.381-6.263 16.31-14.568a.79.79 0 00-.698-.874zm-5.76 8.024v2.103a14.806 14.806 0 01-6.505 3.354l-1.477-4.875 1.098-1.05a1.518 1.518 0 001.4-.602l1.653-2.21c.012-.017.022-.035.033-.052l1.67.49a2.978 2.978 0 012.128 2.842zm-10.51-.444l-.808-.763 1.515-.99 1.443.95-.837.803h-1.313zm3.79-1.616l-1.772-1.17 1.314-1.135 1.904.372-1.445 1.933zm-5.515-17.007h4.67c.31 0 .563.253.563.564 0 .688.56 1.248 1.249 1.248h.045c.311 0 .564.253.564.564v2.168h-1.11a.152.152 0 01-.152-.152v-.516c0-.728-.428-1.301-1.176-1.571a2.916 2.916 0 00-.922-.165v.002c-.178-.003-2.705-.002-2.716-.002-1.002.018-2.08.569-2.08 1.736v.516a.152.152 0 01-.152.152h-1.11v-2.217a2.33 2.33 0 012.327-2.327zm-2.327 6.801v-.675h1.11c.956 0 1.734-.778 1.734-1.734v-.516-.016c.063-.06.296-.13.508-.138h2.7c.193.003.453.073.521.138l.001.016v.516c0 .929.735 1.687 1.653 1.73.071.007.016.002 1.191.004v.675a1.029 1.029 0 00-.945.96 3.777 3.777 0 01-3.764 3.531 3.777 3.777 0 01-3.764-3.53 1.029 1.029 0 00-.945-.96zM27 24.131c.576 0 1.134-.092 1.657-.263v.879l-1.617 1.396-1.699-1.405v-.87c.523.17 1.08.264 1.658.264zm-2.666 1.827l1.386 1.147-1.83 1.197-1.445-1.978 1.889-.366zm-5.058 1.525l1.695-.498.025.038 1.648 2.256a1.524 1.524 0 001.408.615l1.077 1.016-1.473 4.872a14.804 14.804 0 01-6.508-3.355v-2.102c0-1.306.875-2.475 2.128-2.842zm5.951 8.572l1.388-4.593h.77l1.392 4.593a15.008 15.008 0 01-3.55 0z"/><path d="M11.4 20.173a.793.793 0 00.883-.688C13.2 12.08 19.527 6.498 27 6.498c7.476 0 13.803 5.586 14.718 12.993a.791.791 0 101.57-.194C42.277 11.098 35.274 4.916 27 4.916c-8.27 0-15.272 6.18-16.288 14.374a.791.791 0 00.688.883z"/></symbol><symbol id="icon__arrow_down" viewBox="0 0 20 20"><path fill-rule="evenodd" clip-rule="evenodd" d="M.437 6.437a1.495 1.495 0 000 2.112l8.43 8.448c.322.323.756.467 1.178.432.391.007.785-.138 1.084-.437l8.434-8.444a1.494 1.494 0 000-2.11 1.49 1.49 0 00-2.109 0l-7.458 7.466-7.452-7.467a1.488 1.488 0 00-2.107 0z" fill="#3A7AD3"/></symbol><symbol id="icon__arrow_left"><path fill-rule="evenodd" clip-rule="evenodd" d="M13.563 19.564a1.495 1.495 0 01-2.112 0l-8.447-8.43a1.486 1.486 0 01-.433-1.179 1.486 1.486 0 01.437-1.084L11.452.437a1.494 1.494 0 012.11 0 1.49 1.49 0 010 2.109l-7.466 7.458 7.467 7.452a1.488 1.488 0 010 2.108z" fill="#323441"/></symbol><symbol id="icon__arrow_right"><path fill-rule="evenodd" clip-rule="evenodd" d="M6.437 19.564a1.495 1.495 0 002.112 0l8.448-8.43c.323-.323.467-.757.432-1.179a1.486 1.486 0 00-.437-1.084L8.548.437a1.494 1.494 0 00-2.11 0 1.49 1.49 0 000 2.109l7.466 7.458-7.467 7.452a1.488 1.488 0 000 2.108z" fill="#323441"/></symbol><symbol id="icon__audit" viewBox="0 0 120 120"><path fill-rule="evenodd" clip-rule="evenodd" d="M31 14a5 5 0 015-5h38a5 5 0 015 5v4.998h6c7.732 0 14 6.269 14 14v15a4 4 0 11-8 0v-15a6 6 0 00-6-6h-6V32a5 5 0 01-5 5H36a5 5 0 01-5-5v-5.002h-6a6 6 0 00-6 6v60a6 6 0 006 6h25A4 4 0 1150 107H25c-7.732 0-14-6.268-14-14v-60c0-7.733 6.268-14 14-14h6V14zm40 8.983V29H39V17h32v5.983z" fill="#fff"/><path d="M92.978 84.389a4 4 0 00-5.656-5.657l-6.739 6.738-2.92-2.911a4 4 0 10-5.649 5.665l5.75 5.732a4 4 0 005.652-.005l9.562-9.562z" fill="#fff"/><path fill-rule="evenodd" clip-rule="evenodd" d="M82.5 58.999c-14.635 0-26.5 11.864-26.5 26.5s11.865 26.5 26.5 26.5 26.5-11.864 26.5-26.5c0-14.635-11.865-26.5-26.5-26.5zm0 8c-10.217 0-18.5 8.283-18.5 18.5s8.283 18.5 18.5 18.5 18.5-8.283 18.5-18.5-8.283-18.5-18.5-18.5z" fill="#fff"/></symbol><symbol id="icon__box" viewBox="0 0 54 54"><path d="M44.265 19.83l-8.724-3.378a8.598 8.598 0 10-16.22 0l-8.724 3.378a.939.939 0 00-.597.875V40.94a.939.939 0 00.6.876l16.492 6.393a.943.943 0 00.339.063.93.93 0 00.335-.07l.005.007 16.494-6.393a.94.94 0 00.597-.876V20.705a.938.938 0 00-.597-.874zm-2.937.875l-3.045 1.18-5.046-1.941a8.639 8.639 0 001.488-1.797l6.603 2.558zm-9.937.54l4.291 1.65-2.423.939-4.444-1.736a8.541 8.541 0 002.576-.853zm2.92 4.193l3.153-1.221v3.91l-.527-.344a.94.94 0 00-1.196.143l-1.43 1.517v-4.005zm-6.88-18.537a6.72 6.72 0 11-6.72 6.72 6.728 6.728 0 016.72-6.72zm-6.758 12.014l-1.256-.49.72-.28c.164.267.343.524.536.772v-.002zm-3.845.513l13.84 5.41-3.237 1.254-13.897-5.387 3.294-1.277zm-4.95 20.87V22.075l14.614 5.666v18.221l-14.615-5.666zm16.492 5.665V27.742l4.064-1.577v5.643a.94.94 0 001.622.644l2.513-2.668 1.321.858a.938.938 0 001.448-.786V23.49l3.647-1.413v18.221L28.37 45.963z"/><path d="M25.76 16.383a.94.94 0 001.233-.018l4.552-4.091a.937.937 0 00-.207-1.57.938.938 0 00-1.048.175l-3.944 3.545-1.795-1.518a.94.94 0 00-1.212 1.434l2.42 2.043z"/></symbol><symbol id="icon__build" viewBox="0 0 32 32"><path fill-rule="evenodd" clip-rule="evenodd" d="M11.664 3.995a1 1 0 10-2 0v1.668h-.333a2.334 2.334 0 00-2.334 2.334v1.667h-.334a2.334 2.334 0 00-2.334 2.334v15.007H2.66a1 1 0 100 2H29.34a1 1 0 100-2H25.66V25a3.5 3.5 0 003.344-3.497v-4.337a3.5 3.5 0 00-3.5-3.5h-1.67a3.5 3.5 0 00-3.5 3.5v4.337A3.5 3.5 0 0023.662 25v2.006h-5.327v-2.002h.334a1 1 0 000-2h-8.004a1 1 0 100 2h.448v2.002H6.329V11.998c0-.184.15-.334.334-.334h8.003c.184 0 .334.15.334.334v8.003a1 1 0 102 0v-8.003a2.334 2.334 0 00-2.334-2.334h-.334V7.997a2.334 2.334 0 00-2.334-2.334h-.334V3.995zm1.448 23.01h3.222v-2.002h-3.222v2.002zM8.997 9.665h3.335V7.996a.334.334 0 00-.334-.334H9.331a.334.334 0 00-.334.334v1.667zm15.69 13.338H23.835a1.5 1.5 0 01-1.5-1.5v-4.337a1.5 1.5 0 011.5-1.5h1.669a1.5 1.5 0 011.5 1.5v4.337a1.5 1.5 0 01-1.5 1.5h-.819z" fill="#3A7AD3"/><path fill-rule="evenodd" clip-rule="evenodd" d="M19.002 6.663a3.668 3.668 0 117.335 0 3.668 3.668 0 01-7.335 0zm3.667-1.668a1.668 1.668 0 100 3.336 1.668 1.668 0 000-3.336z" fill="#3A7AD3"/><path d="M8.664 17.668a1 1 0 100 2h4.001a1 1 0 100-2H8.664zM7.664 14.666a1 1 0 011-1h4.001a1 1 0 110 2H8.664a1 1 0 01-1-1z" fill="#3A7AD3"/></symbol><symbol id="icon__cow" viewBox="0 0 32 32"><path fill-rule="evenodd" clip-rule="evenodd" d="M11.374 8.685a1 1 0 011.33.48 3.64 3.64 0 006.552.08l.052-.102a1 1 0 111.788.894l-.05.103a5.632 5.632 0 01-.872 1.271h1.829a3 3 0 013 3.001v1a2 2 0 01-2 2h-1c-.462 0-.9-.103-1.29-.29-.123.425-.285.84-.484 1.238a5.317 5.317 0 00-.561 2.378v.51a3 3 0 01-3.001 3h-1.334a3 3 0 01-3-3v-.51c0-.825-.193-1.64-.562-2.378a7.313 7.313 0 01-.484-1.238c-.39.187-.828.29-1.29.29h-1a2 2 0 01-2-2v-1a3 3 0 013-3h1.829a5.634 5.634 0 01-.931-1.397 1 1 0 01.48-1.33zm7.322 4.726h-5.378a.334.334 0 00-.32.334v1.343c0 .825.193 1.64.562 2.378a7.317 7.317 0 01.772 3.272v.51a1 1 0 001.001 1h1.334a1 1 0 001-1v-.51c0-1.136.265-2.256.773-3.272.37-.738.562-1.553.562-2.378v-1.346a.334.334 0 00-.306-.33zm-7.698 1.001a1 1 0 01-1 1h-1l-.001-1a1 1 0 011-1h1.001v1zm10.004.003a1 1 0 001 .998h1l.001-1.001a1 1 0 00-1-1h-1.001V14.414z" fill="#323441"/><path fill-rule="evenodd" clip-rule="evenodd" d="M16 2.995C8.818 2.995 2.995 8.818 2.995 16c0 7.183 5.823 13.005 13.005 13.005 7.183 0 13.005-5.822 13.005-13.005 0-7.182-5.822-13.005-13.005-13.005zM4.995 16C4.995 9.922 9.922 4.995 16 4.995c6.078 0 11.005 4.927 11.005 11.005 0 6.078-4.927 11.005-11.005 11.005-6.078 0-11.005-4.927-11.005-11.005z" fill="#323441"/></symbol><symbol id="icon__cross" viewBox="0 0 16 16"><path d="M.447.447a1.526 1.526 0 000 2.158L5.842 8 .447 13.395a1.526 1.526 0 002.158 2.158L8 10.158l5.395 5.395a1.526 1.526 0 102.158-2.158L10.158 8l5.395-5.395A1.526 1.526 0 0013.395.447L8 5.842 2.605.447a1.526 1.526 0 00-2.158 0z" fill="#fff"/></symbol><symbol id="icon__diet" viewBox="0 0 120 120"><path d="M10.981 24.987c0-7.735 6.27-14.005 14.004-14.005H85.01c7.735 0 14.005 6.27 14.005 14.005v15.006a4 4 0 11-8 0V24.987a6.004 6.004 0 00-6.005-6.005H24.985a6.004 6.004 0 00-6.004 6.005v65.027a6.004 6.004 0 006.004 6.004h25.01a4 4 0 010 8h-25.01c-7.734 0-14.004-6.27-14.004-14.004V24.987z" fill="#fff"/><path d="M42.244 54.998a4 4 0 014-4H60a4 4 0 010 8H46.244a4 4 0 01-4-4zM46.244 30.99a4 4 0 100 8h28.762a4 4 0 100-8H46.244zM25.988 54.998a4.625 4.625 0 119.25 0 4.625 4.625 0 01-9.25 0zM30.613 30.366a4.625 4.625 0 100 9.25 4.625 4.625 0 000-9.25zM42.244 75.006a4 4 0 014-4h3.752a4 4 0 110 8h-3.752a4 4 0 01-4-4z" fill="#fff"/><path fill-rule="evenodd" clip-rule="evenodd" d="M95.515 50.998c-7.734 0-14.004 6.27-14.004 14.004v2.29a61.766 61.766 0 00-3.476-.416 3.988 3.988 0 00-.363-.017c-5.09 0-9.235 2.07-11.987 5.735-2.64 3.513-3.733 8.122-3.733 12.917 0 12.997 10.537 23.533 23.534 23.533 12.997 0 23.533-10.536 23.533-23.533 0-4.813-1.091-9.431-3.733-12.945a14.207 14.207 0 00-3.01-2.973 14.001 14.001 0 003.076-8.758v-5.837a4 4 0 00-4-4h-5.837zM89.51 65.002a6.004 6.004 0 016.004-6.004h1.837v1.837a6.004 6.004 0 01-6.019 6.004h-1.822v-1.837zm3.965 9.858c-2.385.225-4.752.61-7.086 1.152a4.002 4.002 0 01-1.808 0 53.698 53.698 0 00-7.08-1.151c-2.625.041-4.292 1.034-5.422 2.538-1.267 1.687-2.127 4.403-2.127 8.112 0 8.578 6.954 15.533 15.533 15.533 8.578 0 15.533-6.955 15.533-15.533 0-3.736-.863-6.456-2.127-8.137-1.125-1.496-2.787-2.483-5.416-2.514z" fill="#fff"/><path d="M30.613 70.38a4.625 4.625 0 100 9.251 4.625 4.625 0 000-9.25z" fill="#fff"/></symbol><symbol id="icon__feed" viewBox="0 0 32 32"><path fill-rule="evenodd" clip-rule="evenodd" d="M2.995 16C2.995 8.818 8.818 2.995 16 2.995c7.183 0 13.005 5.823 13.005 13.005 0 7.183-5.822 13.005-13.005 13.005-7.182 0-13.005-5.822-13.005-13.005zM16 4.995C9.922 4.995 4.995 9.922 4.995 16c0 5.74 4.396 10.455 10.005 10.96v-2.044a5.67 5.67 0 01-4.669-5.581V9.998a1 1 0 112 0v.644A5.648 5.648 0 0115 11.902V9.33a1 1 0 112 0v2.57a5.648 5.648 0 012.669-1.259v-.644a1 1 0 112 0v9.337A5.67 5.67 0 0117 24.915v2.045c5.61-.505 10.005-5.22 10.005-10.96 0-6.078-4.927-11.005-11.005-11.005zm1 17.87a3.67 3.67 0 002.669-3.53v-.951A3.67 3.67 0 0017 21.912v.953zm2.669-6.531v-3.642A3.67 3.67 0 0017 16.22v1.373a5.648 5.648 0 012.669-1.259zm-7.338-3.642v3.642A5.648 5.648 0 0115 17.594v-1.375a3.67 3.67 0 00-2.669-3.527zm0 5.692v.95A3.67 3.67 0 0015 22.866v-.954a3.67 3.67 0 00-2.669-3.527z" fill="#323441"/></symbol><symbol id="icon__lab" viewBox="0 0 54 54"><path d="M31.75 21.1v-2.85a3 3 0 000-6h-10.5a3 3 0 000 6v2.85l-8.596 20.63A5.25 5.25 0 0017.5 49h18a5.25 5.25 0 004.846-7.27L31.75 21.1zm-12-5.85a1.502 1.502 0 011.5-1.5h10.5a1.5 1.5 0 110 3h-10.5a1.502 1.502 0 01-1.5-1.5zm2.942 6.288a.75.75 0 00.058-.288v-3h7.5v3c0 .099.02.197.058.288l3.458 8.3a6.472 6.472 0 01-6.665-1.548 7.998 7.998 0 00-6.26-2.308l1.851-4.444zM38.62 45.83a3.694 3.694 0 01-3.12 1.67h-18a3.75 3.75 0 01-3.461-5.192l6.133-14.721a6.488 6.488 0 015.868 1.764 7.97 7.97 0 008.304 1.874l4.617 11.083a3.692 3.692 0 01-.34 3.522z"/><path d="M37.192 41.962l-1.384.576.384.924A.75.75 0 0135.5 44.5H34V46h1.5a2.25 2.25 0 002.077-3.115l-.385-.923zM16.876 44.166a.711.711 0 01-.068-.704l.384-.924-1.384-.576-.385.922A2.25 2.25 0 0017.5 46H19v-1.5h-1.5a.712.712 0 01-.624-.334zM22.75 29.5a3 3 0 100 5.999 3 3 0 000-5.999zm0 4.5a1.5 1.5 0 110-3 1.5 1.5 0 010 3zM22.75 37a2.25 2.25 0 100 4.5 2.25 2.25 0 000-4.5zm0 3a.75.75 0 110-1.5.75.75 0 010 1.5zM31.75 34a3 3 0 100 6 3 3 0 000-6zm0 4.5a1.5 1.5 0 110-3 1.5 1.5 0 010 3zM42.47 29.72l-3.75 3.75 1.06 1.06L43.31 31H49v-1.5h-6a.75.75 0 00-.53.22zM43 27.25h3v1.5h-3v-1.5zM47.5 27.25H49v1.5h-1.5v-1.5zM44.5 25H49v1.5h-4.5V25zM37.97 8.72l-3 3 1.06 1.06L38.81 10H49V8.5H38.5a.75.75 0 00-.53.22zM40 6.25h3v1.5h-3v-1.5zM44.5 6.25H49v1.5h-4.5v-1.5zM42.25 4h4.5v1.5h-4.5V4zM47.5 4H49v1.5h-1.5V4zM13.97 34.53l1.06-1.06-1.5-1.5a.75.75 0 00-.53-.22H4v1.5h8.69l1.28 1.28zM10 29.5h3V31h-3v-1.5zM4 29.5h4.5V31H4v-1.5zM6.25 27.25h4.5v1.5h-4.5v-1.5zM4 27.25h1.5v1.5H4v-1.5z"/></symbol><symbol id="icon__lab_line" viewBox="0 0 120 120"><path d="M24.985 10.982c-7.734 0-14.004 6.27-14.004 14.005v70.029c0 7.734 6.27 14.004 14.004 14.004h25.01a4 4 0 000-8h-25.01a6.004 6.004 0 01-6.004-6.004v-70.03a6.004 6.004 0 016.004-6.004h65.028a6.004 6.004 0 016.004 6.005v15.006a4 4 0 008 0V24.987c0-7.735-6.27-14.005-14.004-14.005H24.984z" fill="#fff"/><path d="M46.244 71.006a4 4 0 100 8h8.754a4 4 0 100-8h-8.754zM42.244 54.998a4 4 0 014-4H60a4 4 0 110 8H46.244a4 4 0 01-4-4zM46.244 31.616a4 4 0 000 8h33.764a4 4 0 000-8H46.244zM25.988 75.006a4.625 4.625 0 119.25 0 4.625 4.625 0 01-9.25 0zM30.613 50.373a4.625 4.625 0 100 9.25 4.625 4.625 0 000-9.25zM25.988 35.616a4.625 4.625 0 119.25 0 4.625 4.625 0 01-9.25 0z" fill="#fff"/><path fill-rule="evenodd" clip-rule="evenodd" d="M80.5 50.998h-3.738a4 4 0 00-.261 7.992v13.78L64.136 92.609a14.004 14.004 0 0011.855 21.412h24.018a14.005 14.005 0 0011.855-21.412L99.786 73.231a3.998 3.998 0 00-.287-.488v-13.75a4 4 0 00-.228-7.995H80.5zm4 20.008V58.998H91.5v12.008H84.5zM70.926 96.84l11.116-17.834h11.917l11.117 17.834a6.002 6.002 0 01.157 6.084 6.001 6.001 0 01-5.236 3.096H76.004a6.003 6.003 0 01-5.08-9.18z" fill="#fff"/></symbol><symbol id="icon__like" viewBox="0 0 54 54"><path d="M31.225 9.532a.898.898 0 10-.421 1.747A16.118 16.118 0 0143.172 27c0 8.917-7.255 16.172-16.172 16.172-8.918 0-16.172-7.255-16.172-16.172 0-7.5 5.085-13.965 12.367-15.72a.899.899 0 00-.421-1.747 18.055 18.055 0 00-9.828 6.27A17.775 17.775 0 009.03 27c0 9.908 8.06 17.969 17.969 17.969 9.908 0 17.969-8.06 17.969-17.969 0-4.115-1.354-7.987-3.916-11.197a18.056 18.056 0 00-9.828-6.27z"/><path d="M49.459 24.84l-1.051-1.962.175-2.424a4.586 4.586 0 00-1.66-4.06l-1.745-1.428-.686-2.068a4.618 4.618 0 00-3.143-3.322l-2.153-.65-1.65-1.907a4.598 4.598 0 00-3.951-1.598l-2.236.223-2.197-1.102a4.584 4.584 0 00-4.323 0l-1.96 1.05-2.425-.175a4.585 4.585 0 00-4.06 1.66l-1.428 1.745-2.068.687a4.618 4.618 0 00-3.322 3.142l-.65 2.154-1.907 1.65a4.597 4.597 0 00-1.598 3.95l.223 2.236-1.102 2.197a4.584 4.584 0 000 4.323l1.05 1.961-.175 2.425a4.586 4.586 0 001.66 4.06l1.745 1.428.687 2.067a4.618 4.618 0 003.142 3.322l2.154.65 1.65 1.907a4.597 4.597 0 003.95 1.598l2.236-.223 2.197 1.102a4.591 4.591 0 004.323 0l1.961-1.05 2.425.175a4.587 4.587 0 004.06-1.66l1.428-1.745 2.067-.686a4.618 4.618 0 003.322-3.143l.65-2.153 1.907-1.65a4.597 4.597 0 001.598-3.951l-.223-2.235 1.103-2.198a4.584 4.584 0 000-4.323zm-1.59 3.484a.67.67 0 00-.011.022l-1.225 2.44a.9.9 0 00-.09.492l.248 2.494a2.803 2.803 0 01-.98 2.41l-2.109 1.825a.897.897 0 00-.272.42l-.726 2.403a2.816 2.816 0 01-2.052 1.922.9.9 0 00-.079.022l-2.351.78a.899.899 0 00-.413.284l-1.593 1.947a2.797 2.797 0 01-2.523 1.007l-2.7-.195a.899.899 0 00-.49.104l-2.189 1.173a2.79 2.79 0 01-2.66-.016l-2.44-1.224a.899.899 0 00-.492-.091l-2.493.248a2.803 2.803 0 01-2.41-.98l-1.826-2.109a.898.898 0 00-.42-.272l-2.402-.726a2.816 2.816 0 01-1.923-2.052.91.91 0 00-.022-.079l-.78-2.351a.897.897 0 00-.284-.412l-1.946-1.594a2.796 2.796 0 01-1.008-2.523l.196-2.7a.899.899 0 00-.105-.49l-1.173-2.189a2.79 2.79 0 01.017-2.66l1.224-2.44a.898.898 0 00.09-.492L7.21 20.23a2.803 2.803 0 01.98-2.41l2.11-1.826a.898.898 0 00.271-.42l.726-2.402a2.816 2.816 0 012.052-1.923.91.91 0 00.08-.022l2.35-.78a.897.897 0 00.413-.284l1.594-1.947a2.797 2.797 0 012.522-1.007l2.701.195c.17.013.34-.023.49-.104l2.188-1.173a2.79 2.79 0 012.638.005l.022.012 2.44 1.224a.897.897 0 00.492.09l2.494-.248a2.803 2.803 0 012.41.98l1.825 2.11a.898.898 0 00.42.271l2.403.726a2.816 2.816 0 011.922 2.052.91.91 0 00.022.08l.78 2.35a.898.898 0 00.284.413l1.947 1.594a2.796 2.796 0 011.007 2.522l-.195 2.701a.9.9 0 00.104.49l1.173 2.188a2.79 2.79 0 01-.005 2.638z"/><path d="M23.1 22.105a.898.898 0 00-.81-.514h-4.748a.898.898 0 00-.898.898v13.6c0 .496.402.898.898.898h4.747a.898.898 0 00.828-.55c.685.097 1.39.292 2.125.495 1.105.306 2.247.622 3.433.622h5.187c1.603 0 2.902-.85 3.475-2.274.28-.694.328-1.414.165-2.017.298-.268.55-.602.741-.991.386-.79.464-1.679.245-2.427.408-.394.712-.915.872-1.529.148-.574.146-1.14.014-1.631.81-.477 1.356-1.343 1.356-2.32 0-.764-.298-1.47-.84-1.985a2.81 2.81 0 00-1.948-.767H30.63c-.555-.697-.728-1.642-.412-2.403.649-1.562.609-2.884-.13-4.287-.549-1.042-2.024-2.078-3.264-1.901-.75.107-1.291.636-1.45 1.417-.047.23-.06.477-.075.764-.037.709-.087 1.679-.698 2.85-.415.794-.553 1.611-.675 2.332-.175 1.032-.26 1.53-.826 1.72zm-4.66 1.283h2.951V35.19h-2.95V23.388zm7.259-2.703c.104-.618.212-1.258.496-1.8.792-1.519.86-2.815.9-3.589.01-.206.02-.4.04-.498v-.002c.313.004 1.08.425 1.364.964.492.934.508 1.682.06 2.76-.403.972-.373 2.1.027 3.103a.898.898 0 00.124 1.787h9.232c.273 0 .526.096.71.272.128.122.28.34.28.684 0 .482-.441.899-.964.91l-2.312.05a.898.898 0 00.019 1.797h.02l1.926-.042c.062.178.095.518-.037.906-.113.331-.415.886-1.175.886a.898.898 0 000 1.797c.136 0 .27-.009.4-.025.012.254-.04.552-.18.837-.165.337-.49.74-1.107.74a.898.898 0 000 1.796c.093 0 .185-.004.275-.012a1.693 1.693 0 01-.135.623c-.14.34-.598 1.128-1.8 1.128h-5.187c-.942 0-1.919-.27-2.953-.557-.823-.228-1.667-.46-2.534-.565V23.923c2.023-.366 2.302-2.004 2.51-3.238zM27 10.828a.898.898 0 100-1.797.898.898 0 000 1.797z"/></symbol><symbol id="icon__mail" viewBox="0 0 32 32"><path fill-rule="evenodd" clip-rule="evenodd" d="M6.4 5.667a3.39 3.39 0 00-3.396 3.572C3.001 9.27 3 9.301 3 9.333v13.333a3.674 3.674 0 003.667 3.667h18.666A3.674 3.674 0 0029 22.666V9.333c0-.032-.002-.063-.004-.094A3.39 3.39 0 0025.6 5.667H6.4zm12.158 10.004l-.039.026c-1.532.981-3.367.982-4.9.003l-.094-.064a.989.989 0 00-.107-.073l-7.754-5.299C5.188 9.874 5 9.48 5 9.067c0-.781.619-1.4 1.4-1.4h19.2c.781 0 1.4.619 1.4 1.4 0 .416-.187.827-.62 1.39l-7.752 5.167c-.024.015-.047.03-.07.047zm.426 2.06l6.585 6.585a1.64 1.64 0 01-.236.017H6.667a1.65 1.65 0 01-.236-.017l6.63-6.63a6.414 6.414 0 005.923.045zm8 5.17a1.65 1.65 0 00.016-.235v-10.22l-6.283 4.19 6.266 6.266zm-21.967.001l6.331-6.331L5 12.233v10.433c0 .08.006.159.017.236z" fill="#3A7AD3"/></symbol><symbol id="icon__phone" viewBox="0 0 16 16"><path d="M13.685 10.807l-1.678-1.675c-.6-.598-1.618-.359-1.858.419-.18.538-.779.837-1.318.717-1.199-.299-2.817-1.854-3.117-3.11-.18-.538.18-1.136.72-1.315.778-.24 1.018-1.256.419-1.854L5.175 2.314c-.48-.419-1.199-.419-1.619 0L2.418 3.45c-1.14 1.197.12 4.366 2.936 7.177 2.817 2.811 5.994 4.127 7.193 2.931l1.138-1.136c.42-.479.42-1.197 0-1.615z"/></symbol><symbol id="icon__phone_line" viewBox="0 0 32 32"><path fill-rule="evenodd" clip-rule="evenodd" d="M11.526 5.04a3.666 3.666 0 00-5.185 0l-.87.869C4.237 7.145 3.74 8.91 4.064 10.629c.7 3.708 2.836 7.698 6.223 11.085 3.387 3.387 7.378 5.522 11.086 6.224 1.718.324 3.483-.174 4.72-1.41l.867-.867a3.666 3.666 0 000-5.185l-1.564-1.564a2.999 2.999 0 00-4.243 0l-1.203 1.205a.035.035 0 01-.008.006c-1.651-.731-3.29-1.835-4.76-3.305-1.469-1.47-2.571-3.108-3.302-4.759a.043.043 0 01.007-.008l1.092-1.09c1.249-1.25 1.32-3.149.113-4.356L11.526 5.04zm-3.77 1.414c.65-.65 1.705-.65 2.356 0l1.565 1.565c.355.356.427.987-.113 1.527l-1.092 1.09c-.56.56-.774 1.434-.43 2.214.833 1.888 2.08 3.737 3.726 5.383 1.645 1.645 3.494 2.894 5.382 3.727.78.345 1.654.13 2.213-.43l1.205-1.205a1 1 0 011.413 0l1.564 1.565c.65.65.65 1.706 0 2.356l-.868.868c-.74.74-1.826 1.067-2.934.858-3.26-.616-6.899-2.529-10.043-5.672-3.143-3.144-5.056-6.783-5.672-10.043-.21-1.108.118-2.194.858-2.934l.87-.87z" fill="#3A7AD3"/></symbol><symbol id="icon__pin" viewBox="0 0 32 32"><path fill-rule="evenodd" clip-rule="evenodd" d="M12.464 4.464A5 5 0 1117 12.9v9.767a1 1 0 11-2 0v-9.768a5 5 0 01-2.536-8.435zM13.88 5.88a3 3 0 114.242 4.242A3 3 0 0113.88 5.88z" fill="#3A7AD3"/><path d="M12.99 18.803a1 1 0 01-.854 1.127c-2.255.31-4.13.876-5.408 1.566C5.381 22.221 5 22.902 5 23.332c0 .27.137.636.62 1.08.484.445 1.24.892 2.257 1.288C9.907 26.49 12.777 27 16 27c3.222 0 6.094-.51 8.123-1.3 1.018-.395 1.773-.842 2.257-1.287.483-.444.62-.81.62-1.08 0-.43-.381-1.111-1.728-1.837-1.279-.69-3.153-1.255-5.408-1.566a1 1 0 11.272-1.981c2.402.33 4.528.947 6.085 1.786C27.71 20.538 29 21.732 29 23.333c0 1.019-.535 1.88-1.266 2.553-.73.671-1.732 1.23-2.886 1.679C22.534 28.465 19.406 29 16 29c-3.406 0-6.534-.535-8.848-1.435-1.154-.449-2.155-1.008-2.886-1.68C3.535 25.213 3 24.352 3 23.334c0-1.601 1.29-2.795 2.779-3.598 1.557-.84 3.683-1.455 6.085-1.786a1 1 0 011.127.854z" fill="#3A7AD3"/></symbol><symbol id="icon__report" viewBox="0 0 80 80"><path d="M26.264 35.712a2 2 0 012 2v5.393l4.163 2.537a2 2 0 11-2.081 3.416l-5.122-3.122a2 2 0 01-.96-1.708v-6.516a2 2 0 012-2z" fill="#3A7AD3"/><path fill-rule="evenodd" clip-rule="evenodd" d="M17.992 24.662v-8.005a8.67 8.67 0 018.67-8.67h23.916c2.3 0 4.504.915 6.13 2.54l9.43 9.431a8.668 8.668 0 012.54 6.13v37.255a8.67 8.67 0 01-8.67 8.67H26.661a8.67 8.67 0 01-8.67-8.67V62.01h-5.003a5 5 0 01-5-5V29.662a5 5 0 015-5h5.004zm4-8.005a4.67 4.67 0 014.67-4.67h21.342v11.34a5.335 5.335 0 005.335 5.334h11.339v34.682a4.67 4.67 0 01-4.67 4.67H26.661a4.67 4.67 0 01-4.67-4.67V62.01h18.344a5 5 0 005-5V29.662a5 5 0 00-5-5H21.992v-8.005zm-1.97 41.352a3.08 3.08 0 00-.06 0h-6.974a1 1 0 01-1-1V29.662a1 1 0 011-1h27.347a1 1 0 011 1v27.347a1 1 0 01-1 1H20.022zM52.004 12.21v11.116c0 .737.598 1.334 1.335 1.334h11.115a4.67 4.67 0 00-1.144-1.874l-9.431-9.43a4.67 4.67 0 00-1.875-1.146z" fill="#3A7AD3"/></symbol><symbol id="icon__select"><circle cx="11" cy="11" r="11" fill="#F1F2F4"/><path d="M11 15L6.67 9.75h8.66L11 15z" fill="#003569"/></symbol><symbol id="icon__tube" viewBox="0 0 80 80"><path fill-rule="evenodd" clip-rule="evenodd" d="M44.498 10.241a2 2 0 012.829 0l22.432 22.433a2 2 0 01-2.828 2.828l-2.324-2.324-33.483 33.484a12.573 12.573 0 01-17.786 0 12.571 12.571 0 01.001-17.785l8.594-8.594.059-.059 24.83-24.83-2.324-2.325a2 2 0 010-2.828zM24.206 43.668l-8.039 8.038a8.573 8.573 0 000 12.127l-1.414 1.415 1.415-1.414a8.571 8.571 0 0012.126 0l20.167-20.167H24.206zm28.255-4H28.206L49.65 18.221 61.779 30.35l-9.318 9.317z" fill="#3A7AD3"/></symbol><symbol id="icon__van" viewBox="0 0 80 80"><path fill-rule="evenodd" clip-rule="evenodd" d="M4.653 18.326a5.335 5.335 0 015.334-5.334H46.67a5.335 5.335 0 015.335 5.334v1.336h12.417a5.335 5.335 0 014.951 3.355l3.133 7.832c.022.049.043.099.06.15l2.163 5.404a8.695 8.695 0 01.62 3.214v20.127a5.335 5.335 0 01-5.335 5.335H65.63a7.302 7.302 0 01-14.044 0H28.945a7.302 7.302 0 01-14.048-.014h-4.91a5.335 5.335 0 01-5.334-5.335V18.326zm42.016-1.334H9.987c-.737 0-1.334.597-1.334 1.334V46.34h39.351V18.326c0-.737-.597-1.334-1.335-1.334zM14.906 61.065H9.987a1.335 1.335 0 01-1.334-1.335V50.34h41.351a2 2 0 002-2V23.662H64.42c.546 0 1.036.333 1.239.84l2.066 5.164h-7.716a2 2 0 00-2 2v13.339a2 2 0 002 2h11.34v12.74c0 .736-.598 1.334-1.335 1.334h-4.385a7.302 7.302 0 00-14.04 0H28.943a7.302 7.302 0 00-14.037-.014zm3.745 2.159a2.029 2.029 0 00.002-.292 3.291 3.291 0 013.285-3.126 3.291 3.291 0 013.29 3.292 3.291 3.291 0 01-3.29 3.293 3.291 3.291 0 01-3.287-3.167zm43.26-.266a3.291 3.291 0 00-6.575.012l.002.063v.023a1.658 1.658 0 01-.003.146 3.291 3.291 0 003.288 3.189 3.291 3.291 0 003.288-3.177 2.029 2.029 0 010-.256zm7.413-29.292h-7.316v9.339h9.34V39.62c-.001-.594-.115-1.183-.335-1.734l-1.689-4.221z" fill="#3A7AD3"/></symbol><symbol id="icon__yield" viewBox="0 0 32 32"><path fill-rule="evenodd" clip-rule="evenodd" d="M10 15.494V21.9a2.431 2.431 0 002.429 2.433h7.142A2.431 2.431 0 0022 21.9v-6.406c0-.525-.17-1.037-.485-1.458l-1.658-2.218V9.717c0-.945-.764-1.717-1.714-1.717h-4.286c-.95 0-1.714.772-1.714 1.717v2.1l-1.658 2.219A2.436 2.436 0 0010 15.494zm2.022-.136h3.696c.027-.477.194-.938.481-1.322l.662-.886h-3.217l-1.557 2.083a.434.434 0 00-.065.125zm5.835-4.208V10h-3.714v1.15h3.714zm-.056 4.083l1.056-1.413 1.056 1.413c.029.038.05.08.065.125h-2.242a.436.436 0 01.065-.125zm-.087 2.125H20V21.9a.431.431 0 01-.429.433h-1.857v-4.975zm-2 0v4.975H12.43A.431.431 0 0112 21.9v-4.542h3.714z" fill="#323441"/><path fill-rule="evenodd" clip-rule="evenodd" d="M2.995 16C2.995 8.818 8.818 2.995 16 2.995c7.183 0 13.005 5.823 13.005 13.005 0 7.183-5.822 13.005-13.005 13.005-7.182 0-13.005-5.822-13.005-13.005zM16 4.995C9.922 4.995 4.995 9.922 4.995 16c0 6.078 4.927 11.005 11.005 11.005 6.078 0 11.005-4.927 11.005-11.005 0-6.078-4.927-11.005-11.005-11.005z" fill="#323441"/></symbol><symbol id="img__arrow_01" viewBox="0 0 304 98"><path fill-rule="evenodd" clip-rule="evenodd" d="M3.978 2H0V0h3.978v2zm13.924 0H9.946V0h7.956v2zm13.924 0h-7.957V0h7.957v2zM45.75 2h-7.957V0h7.957v2zm13.924 0h-7.957V0h7.957v2zm13.924 0H65.64V0h7.957v2zm13.924 0h-7.957V0h7.957v2zm13.923 0h-7.956V0h7.956v2zm13.924 0h-7.956V0h7.956v2zm13.924 0h-7.956V0h7.956v2zm13.924 0h-7.957V0h7.957v2zm13.924 0h-7.957V0h7.957v2zm13.924 0h-7.957V0h7.957v2zm13.924 0h-7.957V0h7.957v2zm13.923 0h-7.956V0h7.956v2zm13.924 0h-7.956V0h7.956v2zm13.924 0h-7.956V0h7.956v2zm13.924 0h-7.956V0h7.956v2zm13.924 0h-7.957V0h7.957v2zm9.946 0h-3.979V0h3.979c1.251 0 2.487.07 3.703.205l-.222 1.987A31.485 31.485 0 00264.554 2zm15.028 3.862a30.89 30.89 0 00-6.425-2.658l.554-1.922a32.887 32.887 0 016.842 2.83l-.971 1.75zm9.261 7.81a31.238 31.238 0 00-4.921-4.91l1.251-1.563a33.261 33.261 0 015.236 5.225l-1.566 1.248zm5.569 10.742a30.76 30.76 0 00-2.664-6.411l1.753-.97a32.751 32.751 0 012.837 6.828l-1.926.553zM295.619 33a31.37 31.37 0 00-.193-3.474l1.992-.221c.135 1.213.205 2.446.205 3.695v3.657h-2.004V33zm0 16.457v-7.314h2.004v7.314h-2.004zm0 12.8v-7.314h2.004v7.314h-2.004zm0 12.8v-7.314h2.004v7.314h-2.004zm0 12.8v-7.314h2.004v7.314h-2.004zm8.088 3.486l-6.378 6.364c-.391.39-1.026.39-1.417 0l-6.377-6.364a.997.997 0 010-1.414 1.003 1.003 0 011.417 0l4.667 4.657v-1.243h2.004v1.243l4.666-4.657a1.005 1.005 0 011.418 0 1 1 0 010 1.414z" fill="#323441"/></symbol><symbol id="img__arrow_02" viewBox="0 0 160 66"><path fill-rule="evenodd" clip-rule="evenodd" d="M156.175 2H160V0h-3.825v2zm-13.386 0h7.649V0h-7.649v2zm-13.387 0h7.65V0h-7.65v2zm-13.386 0h7.649V0h-7.649v2zm-13.387 0h7.65V0h-7.65v2zM89.243 2h7.649V0h-7.65v2zM75.856 2h7.65V0h-7.65v2zM62.469 2h7.65V0h-7.65v2zM49.083 2h7.65V0h-7.65v2zM39.52 2h3.825V0H39.52c-1.254 0-2.492.07-3.71.205l.222 1.987A31.596 31.596 0 0139.521 2zM24.464 5.862a30.995 30.995 0 016.437-2.658l-.555-1.922a33.007 33.007 0 00-6.855 2.83l.973 1.75zm-9.278 7.81a31.25 31.25 0 014.93-4.91l-1.253-1.563a33.264 33.264 0 00-5.246 5.225l1.57 1.248zm-5.58 10.742c.65-2.253 1.55-4.4 2.67-6.411l-1.758-.97a32.73 32.73 0 00-2.841 6.828l1.93.553zM8.397 33c0-1.175.066-2.334.193-3.474l-1.995-.221A33.218 33.218 0 006.389 33v4.571h2.008V33zm0 20.571V44.43H6.39v9.142h2.008zM.294 59.343l6.39 6.364c.392.39 1.027.39 1.42 0l6.389-6.364a.997.997 0 000-1.414 1.007 1.007 0 00-1.42 0l-4.676 4.657v-2.157H6.39v2.157l-4.675-4.657a1.007 1.007 0 00-1.42 0 .997.997 0 000 1.414z" fill="#323441"/></symbol><symbol id="img__arrow_03" viewBox="0 0 304 50"><path fill-rule="evenodd" clip-rule="evenodd" d="M3.978 2H0V0h3.978v2zm13.924 0H9.946V0h7.956v2zm13.924 0h-7.957V0h7.957v2zM45.75 2h-7.957V0h7.957v2zm13.924 0h-7.957V0h7.957v2zm13.924 0H65.64V0h7.957v2zm13.924 0h-7.957V0h7.957v2zm13.923 0h-7.956V0h7.956v2zm13.924 0h-7.956V0h7.956v2zm13.924 0h-7.956V0h7.956v2zm13.924 0h-7.957V0h7.957v2zm13.924 0h-7.957V0h7.957v2zm13.924 0h-7.957V0h7.957v2zm13.924 0h-7.957V0h7.957v2zm13.923 0h-7.956V0h7.956v2zm13.924 0h-7.956V0h7.956v2zm13.924 0h-7.956V0h7.956v2zm13.924 0h-7.956V0h7.956v2zm13.924 0h-7.957V0h7.957v2zm9.946 0h-3.979V0h3.979c1.251 0 2.487.07 3.703.205l-.222 1.987A31.485 31.485 0 00264.554 2zm15.028 3.862a30.89 30.89 0 00-6.425-2.658l.554-1.922a32.887 32.887 0 016.842 2.83l-.971 1.75zm9.261 7.81a31.238 31.238 0 00-4.921-4.91l1.251-1.563a33.261 33.261 0 015.236 5.225l-1.566 1.248zm5.569 10.742a30.76 30.76 0 00-2.664-6.411l1.753-.97a32.751 32.751 0 012.837 6.828l-1.926.553zM295.619 33a31.37 31.37 0 00-.193-3.474l1.992-.221c.135 1.213.205 2.446.205 3.695v4.571h-2.004V33zm8.088 10.343l-6.378 6.364c-.391.39-1.026.39-1.417 0l-6.377-6.364a.997.997 0 010-1.414 1.003 1.003 0 011.417 0l4.667 4.657v-2.157h2.004v2.157l4.666-4.657a1.005 1.005 0 011.418 0 1 1 0 010 1.414z" fill="#323441"/></symbol><symbol id="img__arrow_04" viewBox="0 0 340 66"><path fill-rule="evenodd" clip-rule="evenodd" d="M335.912 2H340V0h-4.088v2zm-14.307 0h8.176V0h-8.176v2zm-14.307 0h8.176V0h-8.176v2zm-14.307 0h8.176V0h-8.176v2zm-14.306 0h8.175V0h-8.175v2zm-14.307 0h8.175V0h-8.175v2zm-14.307 0h8.175V0h-8.175v2zm-14.307 0h8.175V0h-8.175v2zm-14.307 0h8.175V0h-8.175v2zM207.15 2h8.175V0h-8.175v2zm-14.307 0h8.175V0h-8.175v2zm-14.307 0h8.175V0h-8.175v2zm-14.307 0h8.175V0h-8.175v2zm-14.307 0h8.176V0h-8.176v2zm-14.307 0h8.176V0h-8.176v2zm-14.307 0h8.176V0h-8.176v2zm-14.307 0h8.176V0h-8.176v2zM92.694 2h8.176V0h-8.176v2zM78.388 2h8.175V0h-8.175v2zM64.08 2h8.175V0h-8.175v2zM49.774 2h8.175V0h-8.175v2zm-10.22 0h4.088V0h-4.088C38.3 0 37.06.07 35.841.205l.223 1.987A31.65 31.65 0 0139.554 2zm-15.07 3.862a31.035 31.035 0 016.443-2.658l-.556-1.922a33.052 33.052 0 00-6.86 2.83l.974 1.75zm-9.285 7.81a31.269 31.269 0 014.934-4.91l-1.254-1.563a33.275 33.275 0 00-5.25 5.225l1.57 1.248zM9.614 24.414a30.724 30.724 0 012.671-6.411l-1.758-.97a32.716 32.716 0 00-2.844 6.828l1.931.553zM8.404 33c0-1.175.066-2.334.194-3.474L6.6 29.305A33.187 33.187 0 006.395 33v4.571h2.01V33zm0 20.571V44.43h-2.01v9.142h2.01zm-8.11 5.772l6.395 6.364c.392.39 1.029.39 1.421 0l6.395-6.364a.996.996 0 000-1.414 1.008 1.008 0 00-1.421 0l-4.68 4.657v-2.157h-2.01v2.157l-4.679-4.657a1.008 1.008 0 00-1.42 0 .997.997 0 000 1.414z" fill="#323441"/></symbol><symbol id="img__arrow_05" viewBox="0 0 104 108"><path fill-rule="evenodd" clip-rule="evenodd" d="M3.68 2H0V0h3.68v2zm12.878 0H9.2V0h7.36v2zm12.88 0h-7.36V0h7.36v2zm12.878 0h-7.36V0h7.36v2zm12.879 0h-7.36V0h7.36v2zm9.199 0h-3.68V0h3.68c1.256 0 2.497.07 3.718.205l-.223 1.987A31.733 31.733 0 0064.394 2zm15.09 3.862a31.099 31.099 0 00-6.451-2.658l.556-1.922a33.115 33.115 0 016.87 2.83l-.976 1.75zm9.297 7.81a31.288 31.288 0 00-4.94-4.91l1.256-1.563a33.294 33.294 0 015.257 5.225l-1.573 1.248zm5.592 10.742a30.7 30.7 0 00-2.675-6.411l1.76-.97a32.694 32.694 0 012.849 6.828l-1.934.553zM95.585 33c0-1.175-.066-2.334-.194-3.474l2-.221c.136 1.213.206 2.446.206 3.695v4.229h-2.012V33zm0 19.029V43.57h2.012v8.458h-2.012zm0 14.8V58.37h2.012v8.458h-2.012zm0 14.8V73.17h2.012v8.458h-2.012zm0 14.8V87.97h2.012v8.458h-2.012zm1.717 11.278a1.01 1.01 0 01-1.423 0l-6.403-6.364a.996.996 0 010-1.414 1.01 1.01 0 011.423 0l4.686 4.657v-1.815h2.012v1.815l4.685-4.657a1.01 1.01 0 011.423 0 .995.995 0 010 1.414l-6.403 6.364z" fill="#323441"/></symbol><symbol id="img__arrow_tablet-l"><path fill-rule="evenodd" clip-rule="evenodd" d="M100.32 2H104V0h-3.68v2zM87.442 2H94.8V0h-7.36v2zm-12.88 0h7.36V0h-7.36v2zM61.685 2h7.36V0h-7.36v2zM48.805 2h7.36V0h-7.36v2zm-9.199 0h3.68V0h-3.68c-1.256 0-2.497.07-3.718.205l.223 1.987A31.733 31.733 0 0139.606 2zm-15.09 3.862a31.099 31.099 0 016.451-2.658l-.556-1.922a33.115 33.115 0 00-6.87 2.83l.976 1.75zm-9.297 7.81a31.288 31.288 0 014.94-4.91l-1.256-1.563a33.294 33.294 0 00-5.257 5.225l1.573 1.248zM9.627 24.414a30.698 30.698 0 012.675-6.411l-1.76-.97a32.69 32.69 0 00-2.849 6.828l1.934.553zM8.415 33c0-1.175.066-2.334.194-3.474l-2-.221A33.148 33.148 0 006.403 33v3.657h2.012V33zm0 16.457v-7.314H6.403v7.314h2.012zm0 12.8v-7.314H6.403v7.314h2.012zm0 12.8v-7.314H6.403v7.314h2.012zm0 12.8v-7.314H6.403v7.314h2.012zm-1.717 9.85c.393.39 1.03.39 1.423 0l6.403-6.364a.996.996 0 000-1.414 1.01 1.01 0 00-1.423 0l-4.686 4.657v-1.243H6.403v1.243l-4.685-4.657a1.01 1.01 0 00-1.423 0 .996.996 0 000 1.414l6.403 6.364z" fill="#323441"/></symbol><symbol id="img__arrow_tablet"><path fill-rule="evenodd" clip-rule="evenodd" d="M3.68 2H0V0h3.68v2zm12.878 0H9.2V0h7.36v2zm12.88 0h-7.36V0h7.36v2zm12.878 0h-7.36V0h7.36v2zm12.879 0h-7.36V0h7.36v2zm9.199 0h-3.68V0h3.68c1.256 0 2.497.07 3.718.205l-.223 1.987A31.733 31.733 0 0064.394 2zm15.09 3.862a31.099 31.099 0 00-6.451-2.658l.556-1.922a33.115 33.115 0 016.87 2.83l-.976 1.75zm9.297 7.81a31.288 31.288 0 00-4.94-4.91l1.256-1.563a33.294 33.294 0 015.257 5.225l-1.573 1.248zm5.592 10.742a30.7 30.7 0 00-2.675-6.411l1.76-.97a32.694 32.694 0 012.849 6.828l-1.934.553zM95.585 33c0-1.175-.066-2.334-.194-3.474l2-.221c.136 1.213.206 2.446.206 3.695v3.657h-2.012V33zm0 16.457v-7.314h2.012v7.314h-2.012zm0 12.8v-7.314h2.012v7.314h-2.012zm0 12.8v-7.314h2.012v7.314h-2.012zm0 12.8v-7.314h2.012v7.314h-2.012zm1.717 9.85a1.01 1.01 0 01-1.423 0l-6.403-6.364a.996.996 0 010-1.414 1.01 1.01 0 011.423 0l4.686 4.657v-1.243h2.012v1.243l4.685-4.657a1.01 1.01 0 011.423 0 .996.996 0 010 1.414l-6.403 6.364z" fill="#323441"/></symbol><symbol id="logo_as_new" viewBox="0 0 342 187"><path d="M229.048.254L28.998 115.34 127.162 3.977l17.58 28.519-7.57 3.905-11.363-14.821-56.867 60.927L229.048.254zM157.146 52.62l30.945 50.197-36.18-47.188 5.235-3.01zM180.586 39.146l66.403 21.02L191.136 97.4l74.808-39.266-74.342-25.32-11.016 6.331zM242.928 1.165h85.3v8.8l-85.3-8.8zM290.295 100.916l-4.7-71.537-4.739 71.537h9.439zM268.518 142.487h-13.197v15.057l-3.916 4.606v-19.663h-13.198v-3.434h30.311v3.434zM209.307 174.326c2.986 1.646 6.34 2.469 10.059 2.469 2.79 0 5.374-.475 7.753-1.422 2.377-.948 4.389-2.316 6.035-4.105l-2.522-2.52c-2.896 3.004-6.598 4.505-11.104 4.505-2.969 0-5.669-.678-8.101-2.039-2.432-1.358-4.338-3.217-5.715-5.578-1.377-2.36-2.064-5.007-2.064-7.941 0-2.932.687-5.578 2.064-7.939 1.377-2.36 3.283-4.22 5.715-5.58 2.432-1.358 5.132-2.039 8.101-2.039 4.47 0 8.172 1.485 11.104 4.455l2.522-2.524c-1.646-1.788-3.648-3.147-6.008-4.076-2.361-.93-4.936-1.394-7.725-1.394-3.721 0-7.082.823-10.087 2.467-3.004 1.645-5.355 3.925-7.053 6.84-1.701 2.914-2.55 6.178-2.55 9.79 0 3.613.849 6.876 2.55 9.792 1.698 2.914 4.04 5.196 7.026 6.839z"/><path clip-rule="evenodd" d="M161.786 176.795c-3.721 0-7.092-.832-10.114-2.495-3.022-1.665-5.383-3.944-7.081-6.84-1.699-2.898-2.548-6.152-2.548-9.765 0-3.612.849-6.866 2.548-9.764 1.698-2.896 4.059-5.177 7.081-6.839 3.022-1.664 6.393-2.494 10.114-2.494 3.718 0 7.072.823 10.059 2.467 2.985 1.645 5.338 3.925 7.053 6.84 1.716 2.914 2.575 6.178 2.575 9.79 0 3.613-.859 6.876-2.575 9.792-1.715 2.914-4.068 5.196-7.053 6.839-2.987 1.646-6.341 2.469-10.059 2.469zm0-3.542c2.967 0 5.649-.671 8.046-2.011a14.585 14.585 0 005.634-5.579c1.358-2.38 2.039-5.034 2.039-7.968 0-2.932-.681-5.588-2.039-7.965a14.574 14.574 0 00-5.634-5.58c-2.397-1.341-5.079-2.013-8.046-2.013-2.969 0-5.66.672-8.076 2.013a14.701 14.701 0 00-5.686 5.58c-1.377 2.377-2.065 5.033-2.065 7.965 0 2.934.688 5.588 2.065 7.968 1.377 2.378 3.273 4.237 5.686 5.579 2.416 1.34 5.107 2.011 8.076 2.011zM132.55 142.487c-2.718-2.289-6.474-3.434-11.266-3.434h-14.055v37.554h3.968v-11.856h10.087c4.792 0 8.548-1.137 11.266-3.407 2.718-2.271 4.076-5.409 4.076-9.416 0-4.004-1.358-7.152-4.076-9.441zm-2.845 16.336c-1.967 1.627-4.81 2.442-8.529 2.442h-9.979v-18.778h9.979c3.719 0 6.562.814 8.529 2.442 1.968 1.627 2.951 3.961 2.951 6.999 0 2.97-.983 5.268-2.951 6.895z"/><path d="M341.927 124.945l-24.23 13.939h.147l-6.943 3.973v-.064l-8.761 5.041.009.032-6.654 3.809-.007-.015-5.724 3.294-5.515 3.155.007.014-50.131 28.84 52.897-60.012 9.515 15.433-4.065 2.112-6.18-8.059-30.644 32.832 38.98-20.026-.012-.036 6.896-3.552.013.046 9.376-4.818v-.064l3.757-1.935h.136l27.133-13.939zM327.923 139.046c3.403.387 6.17 1.479 8.301 3.273 2.716 2.289 4.075 5.436 4.075 9.441 0 4.007-1.359 7.145-4.075 9.416-2.719 2.27-6.475 3.407-11.267 3.407H314.87v-.082l-3.969-6.431v-9.284l3.969-2.271v14.581h9.979c3.719 0 6.562-.814 8.529-2.441 1.968-1.628 2.951-3.925 2.951-6.895 0-3.04-.983-5.373-2.951-7-1.967-1.627-4.81-2.441-8.529-2.441h-2.647l5.721-3.273zM303.2 153.194l16.656 27.021-19.478-25.406 2.822-1.615zM.72 186.963l107.802-62.018-86.28 44.324 30.646-32.832 6.179 8.059 4.065-2.112-9.515-15.433L.72 186.963zM100.413 138.884h-5.614l-6.001 3.435h11.615v-3.435zM80.456 164.268l-.041-17.152-3.875 2.217v8.453l3.915 6.482zM86.45 180.215l-16.656-27.021-2.82 1.614 19.476 25.407z"/></symbol><view id="icon__select-view" viewBox="0 0 22 22"/>
<use xlink:href="#icon__select" width="22" height="22" x="0" y="0"/>
</svg>